<svg width="734" height="640" viewBox="0 0 734 640" fill="none" xmlns="http://www.w3.org/2000/svg" xmlns:xlink="http://www.w3.org/1999/xlink">
<rect width="734" height="640" fill="url(#pattern0)"/>
<defs>
<pattern id="pattern0" patternContentUnits="objectBoundingBox" width="1" height="1">
<use xlink:href="#image0_1_86" transform="translate(-0.00408719) scale(0.0013624 0.0015625)"/>
</pattern>
<image id="image0_1_86" width="740" height="640" xlink:href="img/home.png"/>
</defs>
<path d="M222 530.275L442.8 538.662L512 524.3V547.048L443.5 567.7L222 556.169V530.275Z" fill="#3595F6" fill-opacity="0.75"/>
<path d="M223 530.515V504L443.3 507.5L513 504V525.212L443.7 539L223 530.515Z" fill="#3595F6" fill-opacity="0.75"/>
<path d="M223 504.667V478H444H513V502.533L445 510L223 504.667Z" fill="#3595F6" fill-opacity="0.75"/>
<path d="M223 481V454.258L444.3 450.3L512 457.467V481H444" fill="#3595F6" fill-opacity="0.75"/>
<path d="M223 454.814V427.204L444.5 423.7L513 435.381V458L444 450.885L223 454.814Z" fill="#3595F6" fill-opacity="0.75"/>
<path d="M222 427.625V402.855L443 390L514 414.038V436.3L443 423.445L222 427.625Z" fill="#3595F6" fill-opacity="0.75"/>
<path d="M222 405.675V379.661L444.2 362.7L514 392.46V414L443.7 391.42L222 405.675Z" fill="#3595F6" fill-opacity="0.75"/>
<path d="M222 380.581V354.709L444.5 333.7L514 371.577V393L442 363.298L222 380.581Z" fill="#3595F6" fill-opacity="0.75"/>
<path d="M222 354.482V329.752L445 304.3L514 349.639V372L444.7 332.843L222 354.482Z" fill="#3595F6" fill-opacity="0.75"/>
<path d="M222 329.47V304.801L444.5 275.3L514 327.723V349L443.7 305.52L222 329.47Z" fill="#3595F6" fill-opacity="0.75"/>
<path d="M221 305.443V280.835L443.3 247L514 307.801V328L444 276.016L221 305.443Z" fill="#3595F6" fill-opacity="0.75"/>
<path d="M222 280.388V255.824L443.2 220L513 285.506V307L444.3 247.328L222 280.388Z" fill="#3595F6" fill-opacity="0.75"/>
<path d="M222 256.385V230.835L444.3 192L513 263.845V285L444 219.593L222 256.385Z" fill="#3595F6" fill-opacity="0.75"/>
<path d="M222 230.351V204.859L442.8 160.3L513 240.854V264L444 189.259L222 230.351Z" fill="#3595F6" fill-opacity="0.75"/>
<path d="M223 206.352V180.889L443 132L513 218.574V242L442.3 161.231L223 206.352Z" fill="#3595F6" fill-opacity="0.75"/>
<path d="M222 181.339V155.904L441.8 103L513 196.905V220L443.3 132.199L222 181.339Z" fill="#3595F6" fill-opacity="0.75"/>
<path d="M222 156.348V129.924L444 72.3L513 175.658V197L443.7 103.805L222 156.348Z" fill="#3595F6" fill-opacity="0.75"/>
</svg>
